<svg width="887" height="855" viewBox="0 0 887 855" fill="none" xmlns="http://www.w3.org/2000/svg">
<path d="M536.428 797.898C729.98 746.037 844.842 547.092 792.979 353.543C741.116 159.993 542.169 45.1318 348.617 96.9929C217.693 132.073 122.774 234.452 91.1073 356.937" stroke="#FEFFFE" stroke-width="1.41175" stroke-dasharray="2.82 11.29"/>
<path d="M91.4875 351.924C87.7219 350.915 83.8513 353.15 82.8424 356.915C81.8334 360.681 84.068 364.551 87.8336 365.56C91.5992 366.569 95.4698 364.335 96.4788 360.569C97.4878 356.803 95.2531 352.933 91.4875 351.924Z" fill="#FBFBFC"/>
<path d="M534.377 793.594C530.611 792.585 526.741 794.82 525.732 798.586C524.723 802.351 526.957 806.222 530.723 807.231C534.488 808.24 538.359 806.005 539.368 802.239C540.377 798.474 538.142 794.603 534.377 793.594Z" fill="#FEFEFF"/>
<path d="M259.614 713.061C260.089 713.044 260.548 713.061 260.989 713.112C261.43 713.163 261.871 713.265 262.313 713.418C262.737 713.57 263.157 713.787 263.573 714.067C263.997 714.338 264.425 714.691 264.858 715.123C265.511 715.777 265.999 716.502 266.322 717.3C266.644 718.097 266.806 718.903 266.806 719.718C266.797 720.541 266.627 721.347 266.296 722.136C265.965 722.926 265.482 723.638 264.845 724.275L264.82 724.3C264.184 724.937 263.475 725.416 262.694 725.738C261.905 726.069 261.099 726.239 260.276 726.248C259.445 726.264 258.626 726.107 257.82 725.777C257.005 725.454 256.254 724.949 255.567 724.262C255.151 723.846 254.807 723.435 254.536 723.027C254.256 722.612 254.035 722.204 253.874 721.805C253.713 721.407 253.598 721.004 253.53 720.596C253.462 720.189 253.428 719.782 253.428 719.374L256.114 719.184C256.148 719.845 256.258 720.448 256.445 720.991C256.623 721.525 256.937 722.018 257.387 722.467C257.76 722.841 258.18 723.116 258.647 723.295C259.105 723.464 259.576 723.536 260.06 723.511C260.543 723.486 261.019 723.367 261.485 723.155C261.943 722.951 262.363 722.658 262.745 722.276L262.771 722.251C263.153 721.869 263.45 721.445 263.662 720.978C263.874 720.511 263.997 720.041 264.031 719.565C264.056 719.082 263.988 718.607 263.827 718.14C263.649 717.673 263.369 717.249 262.987 716.867C262.478 716.358 261.956 716.023 261.422 715.862C260.879 715.692 260.272 715.594 259.601 715.569L259.614 713.061ZM250.65 711.072L250.752 711.174C251.397 711.819 252.101 712.133 252.865 712.116C253.62 712.09 254.409 711.666 255.232 710.843L257.752 708.323L259.687 710.258L252.865 717.08L250.93 715.145L252.305 713.771C251.643 714.042 251.002 714.148 250.383 714.089C249.763 714.029 249.178 713.698 248.626 713.096L250.65 711.072ZM241.054 705.269L250.663 700.903C251.138 700.682 251.567 700.525 251.949 700.432C252.339 700.33 252.7 700.292 253.031 700.318C253.353 700.335 253.659 700.419 253.947 700.572C254.236 700.725 254.524 700.945 254.813 701.234C255.169 701.59 255.441 701.947 255.627 702.303C255.814 702.659 255.958 703.033 256.06 703.423L254.011 704.174C253.96 703.97 253.888 703.771 253.794 703.576C253.693 703.372 253.578 703.207 253.451 703.08C253.281 702.91 253.116 702.812 252.954 702.787C252.793 702.744 252.585 702.766 252.331 702.85L248.156 712.371L246.107 710.322L249.2 704.123L243.065 707.28L241.054 705.269ZM236.171 693.539C236.74 692.97 237.334 692.554 237.953 692.291C238.556 692.028 239.154 691.888 239.748 691.871C240.325 691.854 240.876 691.956 241.402 692.177C241.928 692.397 242.395 692.711 242.802 693.119C243.32 693.636 243.647 694.166 243.782 694.71C243.91 695.244 243.952 695.762 243.91 696.262L246.837 693.335L248.772 695.27L239.913 704.128L237.979 702.194L238.959 701.213C238.399 701.298 237.851 701.277 237.317 701.15C236.765 701.023 236.235 700.704 235.726 700.195C235.327 699.796 235.017 699.334 234.797 698.808C234.576 698.282 234.474 697.722 234.491 697.128C234.5 696.542 234.64 695.944 234.911 695.333C235.166 694.722 235.577 694.133 236.146 693.564L236.171 693.539ZM238.106 695.473L238.08 695.499C237.8 695.779 237.592 696.08 237.457 696.402C237.304 696.725 237.223 697.043 237.215 697.357C237.198 697.679 237.249 697.985 237.368 698.273C237.469 698.562 237.635 698.821 237.864 699.05C238.093 699.279 238.356 699.449 238.653 699.559C238.933 699.669 239.234 699.716 239.557 699.699C239.862 699.682 240.18 699.601 240.511 699.457C240.825 699.313 241.122 699.101 241.402 698.821L241.428 698.795C241.708 698.515 241.924 698.214 242.077 697.891C242.213 697.569 242.293 697.251 242.319 696.937C242.327 696.623 242.281 696.322 242.179 696.033C242.06 695.745 241.886 695.486 241.657 695.257C241.428 695.028 241.173 694.858 240.893 694.748C240.596 694.637 240.291 694.586 239.977 694.595C239.654 694.612 239.336 694.693 239.022 694.837C238.7 694.973 238.394 695.185 238.106 695.473ZM234.035 685.166C234.358 685.251 234.676 685.382 234.99 685.561C235.312 685.73 235.635 685.976 235.957 686.299C236.254 686.596 236.492 686.901 236.67 687.215C236.848 687.512 236.946 687.83 236.963 688.17C236.971 688.501 236.899 688.844 236.746 689.201C236.577 689.557 236.292 689.935 235.894 690.334L232.661 693.566L233.475 694.381L231.821 696.036L231.006 695.221L229.262 696.965L227.328 695.03L229.071 693.286L227.468 691.683L229.122 690.028L230.726 691.632L233.641 688.717C234.082 688.276 234.095 687.847 233.679 687.432C233.34 687.092 232.941 686.855 232.483 686.719L234.035 685.166ZM222.414 679.782C222.906 679.289 223.462 678.92 224.082 678.674C224.693 678.437 225.325 678.322 225.978 678.331C226.631 678.339 227.276 678.475 227.913 678.738C228.549 679.001 229.135 679.4 229.669 679.934C230.195 680.46 230.594 681.037 230.866 681.665C231.129 682.302 231.269 682.942 231.286 683.587C231.286 684.232 231.167 684.86 230.929 685.471C230.683 686.09 230.314 686.646 229.822 687.138L229.796 687.164C229.304 687.656 228.753 688.021 228.142 688.258C227.522 688.505 226.886 688.623 226.233 688.615C225.579 688.606 224.934 688.471 224.298 688.208C223.662 687.944 223.076 687.546 222.542 687.011C222.015 686.485 221.621 685.904 221.358 685.267C221.086 684.639 220.951 684.003 220.951 683.358C220.934 682.713 221.048 682.081 221.294 681.462C221.532 680.851 221.897 680.299 222.389 679.807L222.414 679.782ZM224.349 681.665L224.323 681.691C224.069 681.945 223.874 682.225 223.738 682.531C223.594 682.845 223.517 683.167 223.509 683.498C223.492 683.838 223.543 684.169 223.662 684.491C223.78 684.813 223.971 685.106 224.234 685.369C224.514 685.649 224.816 685.849 225.138 685.967C225.444 686.086 225.757 686.137 226.08 686.12C226.402 686.103 226.721 686.023 227.035 685.878C227.332 685.734 227.607 685.535 227.862 685.28L227.887 685.255C228.142 685 228.341 684.716 228.486 684.402C228.621 684.096 228.698 683.774 228.715 683.435C228.723 683.104 228.672 682.781 228.562 682.467C228.443 682.145 228.248 681.848 227.976 681.576C227.696 681.296 227.404 681.097 227.098 680.978C226.776 680.859 226.453 680.808 226.131 680.825C225.808 680.842 225.499 680.923 225.202 681.067C224.888 681.211 224.603 681.411 224.349 681.665ZM217.31 670.069C218.005 670.035 218.684 670.112 219.346 670.299C219.999 670.494 220.666 670.931 221.344 671.61C221.853 672.119 222.235 672.687 222.49 673.315C222.736 673.934 222.859 674.558 222.859 675.186C222.85 675.822 222.723 676.442 222.477 677.044C222.223 677.655 221.853 678.203 221.37 678.686L221.344 678.712C220.861 679.195 220.313 679.564 219.702 679.819C219.092 680.074 218.468 680.205 217.831 680.214C217.195 680.222 216.567 680.103 215.948 679.857C215.32 679.603 214.743 679.212 214.217 678.686C213.572 678.041 213.139 677.405 212.918 676.777C212.698 676.149 212.605 675.496 212.638 674.817L215.095 674.728C215.086 675.178 215.133 675.589 215.235 675.962C215.328 676.327 215.549 676.684 215.897 677.032C216.143 677.278 216.419 677.452 216.724 677.553C217.013 677.655 217.318 677.698 217.641 677.681C217.954 677.655 218.268 677.57 218.582 677.426C218.879 677.282 219.155 677.083 219.41 676.828L219.435 676.803C219.698 676.539 219.906 676.255 220.059 675.95C220.203 675.636 220.284 675.318 220.301 674.995C220.318 674.673 220.271 674.355 220.161 674.041C220.042 673.735 219.851 673.451 219.588 673.188C219.265 672.865 218.922 672.649 218.557 672.539C218.175 672.428 217.755 672.365 217.297 672.348L217.31 670.069ZM210.942 661.513L212.877 663.447L211.909 664.415C212.164 664.381 212.427 664.364 212.698 664.364C212.953 664.364 213.212 664.393 213.475 664.453C213.738 664.512 213.997 664.61 214.251 664.745C214.506 664.881 214.756 665.072 215.002 665.318C215.74 666.056 216.088 666.854 216.046 667.711C215.995 668.56 215.575 669.378 214.786 670.168L210.369 674.584L208.435 672.65L212.24 668.844C212.698 668.386 212.944 667.936 212.978 667.495C213.004 667.062 212.83 666.659 212.457 666.286C212.083 665.912 211.676 665.734 211.235 665.751C210.776 665.768 210.318 666.006 209.86 666.464L206.054 670.269L204.12 668.335L210.942 661.513ZM200.174 660.596L200.275 660.697C200.92 661.342 201.625 661.656 202.388 661.639C203.143 661.614 203.933 661.19 204.756 660.366L207.276 657.846L209.21 659.781L202.388 666.603L200.454 664.669L201.828 663.294C201.166 663.565 200.526 663.672 199.906 663.612C199.287 663.553 198.701 663.222 198.15 662.619L200.174 660.596ZM194.854 655.276L194.955 655.378C195.6 656.022 196.305 656.336 197.068 656.319C197.824 656.294 198.613 655.87 199.436 655.047L201.956 652.526L203.89 654.461L197.068 661.283L195.134 659.349L196.508 657.974C195.846 658.246 195.206 658.352 194.586 658.292C193.967 658.233 193.381 657.902 192.83 657.299L194.854 655.276ZM188.986 645.997C189.08 645.904 189.165 645.828 189.241 645.768C189.309 645.7 189.394 645.624 189.496 645.539L194.243 650.287C194.591 649.752 194.735 649.226 194.676 648.709C194.599 648.191 194.345 647.716 193.912 647.283C193.59 646.961 193.246 646.727 192.881 646.583C192.516 646.439 192.075 646.354 191.558 646.328L191.43 644.241C192.151 644.165 192.856 644.241 193.543 644.47C194.222 644.708 194.871 645.136 195.49 645.756C196 646.265 196.39 646.825 196.661 647.436C196.924 648.038 197.06 648.658 197.069 649.294C197.069 649.922 196.946 650.537 196.7 651.14C196.445 651.75 196.055 652.319 195.529 652.845L195.503 652.871C195.02 653.354 194.481 653.732 193.887 654.003C193.284 654.266 192.673 654.411 192.054 654.436C191.434 654.462 190.828 654.364 190.234 654.143C189.631 653.914 189.08 653.549 188.579 653.049C188.011 652.48 187.62 651.886 187.408 651.267C187.196 650.647 187.128 650.028 187.205 649.409C187.264 648.789 187.455 648.191 187.777 647.614C188.083 647.037 188.477 646.507 188.961 646.023L188.986 645.997ZM190.145 648.607C189.771 649.099 189.576 649.599 189.559 650.109C189.534 650.626 189.725 651.089 190.132 651.496C190.539 651.903 191.002 652.103 191.519 652.094C192.028 652.077 192.542 651.886 193.059 651.521L190.145 648.607ZM184.515 635.086L186.45 637.021L182.644 640.826C182.186 641.285 181.944 641.73 181.919 642.163C181.885 642.604 182.055 643.011 182.428 643.385C182.801 643.758 183.217 643.936 183.675 643.919C184.117 643.902 184.566 643.665 185.025 643.206L188.83 639.401L190.765 641.335L183.943 648.158L182.008 646.223L182.975 645.256C182.721 645.29 182.466 645.307 182.212 645.307C181.94 645.307 181.673 645.277 181.41 645.217C181.147 645.158 180.888 645.06 180.633 644.925C180.379 644.789 180.129 644.598 179.882 644.352C179.144 643.614 178.801 642.82 178.851 641.972C178.894 641.115 179.31 640.292 180.099 639.503L184.515 635.086ZM175.733 628.492C176.428 628.458 177.107 628.535 177.769 628.721C178.422 628.917 179.088 629.354 179.767 630.032C180.276 630.542 180.658 631.11 180.913 631.738C181.159 632.357 181.282 632.981 181.282 633.609C181.273 634.245 181.146 634.865 180.9 635.467C180.646 636.078 180.276 636.626 179.793 637.109L179.767 637.135C179.284 637.618 178.736 637.987 178.125 638.242C177.514 638.497 176.891 638.628 176.254 638.637C175.618 638.645 174.99 638.526 174.371 638.28C173.743 638.026 173.166 637.635 172.64 637.109C171.995 636.464 171.562 635.828 171.341 635.2C171.121 634.572 171.027 633.919 171.061 633.24L173.518 633.151C173.509 633.601 173.556 634.012 173.658 634.385C173.751 634.75 173.972 635.107 174.32 635.455C174.566 635.701 174.842 635.875 175.147 635.976C175.436 636.078 175.741 636.121 176.063 636.104C176.377 636.078 176.691 635.993 177.005 635.849C177.302 635.705 177.578 635.505 177.833 635.251L177.858 635.225C178.121 634.962 178.329 634.678 178.482 634.373C178.626 634.059 178.707 633.741 178.724 633.418C178.741 633.096 178.694 632.777 178.584 632.464C178.465 632.158 178.274 631.874 178.011 631.611C177.688 631.288 177.345 631.072 176.98 630.962C176.598 630.851 176.178 630.788 175.72 630.771L175.733 628.492ZM162.25 626.465L171.86 622.099C172.335 621.879 172.763 621.722 173.145 621.628C173.535 621.527 173.896 621.488 174.227 621.514C174.549 621.531 174.855 621.616 175.143 621.768C175.432 621.921 175.72 622.142 176.009 622.43C176.365 622.787 176.637 623.143 176.823 623.499C177.01 623.856 177.154 624.229 177.256 624.619L175.207 625.37C175.156 625.167 175.084 624.967 174.991 624.772C174.889 624.569 174.774 624.403 174.647 624.276C174.477 624.106 174.312 624.008 174.151 623.983C173.989 623.941 173.781 623.962 173.527 624.047L169.352 633.567L167.303 631.518L170.396 625.319L164.261 628.476L162.25 626.465Z" fill="#FEFEFF"/>
</svg>
