<svg width="553" height="555" viewBox="0 0 553 555" fill="none" xmlns="http://www.w3.org/2000/svg">
<path d="M279.526 547.34C430.006 547.34 551.993 425.037 551.993 274.17C551.993 123.302 430.006 1 279.526 1C129.046 1 7.05859 123.302 7.05859 274.17" stroke="url(#paint0_linear_390_726)" stroke-width="1.41175"/>
<path d="M7.05874 283.346C10.9572 283.346 14.1175 280.186 14.1175 276.287C14.1175 272.389 10.9572 269.229 7.05874 269.229C3.16031 269.229 0 272.389 0 276.287C0 280.186 3.16031 283.346 7.05874 283.346Z" fill="#FEFEFF"/>
<path d="M286.584 554.399C290.483 554.399 293.643 551.238 293.643 547.34C293.643 543.442 290.483 540.281 286.584 540.281C282.686 540.281 279.525 543.442 279.525 547.34C279.525 551.238 282.686 554.399 286.584 554.399Z" fill="white"/>
<path d="M188.019 400.805C187.707 400.265 187.527 399.724 187.479 399.184C187.436 398.655 187.507 398.142 187.693 397.647C187.884 397.163 188.179 396.701 188.577 396.264C188.982 395.836 189.48 395.451 190.073 395.109C190.904 394.629 191.801 394.299 192.763 394.117C193.731 393.946 194.714 393.968 195.71 394.182L195.273 396.7C194.54 396.583 193.845 396.555 193.187 396.616C192.519 396.683 191.873 396.896 191.25 397.256C190.751 397.544 190.417 397.855 190.249 398.187C190.077 398.536 190.083 398.872 190.269 399.194L190.287 399.225C190.377 399.381 190.487 399.498 190.615 399.577C190.739 399.671 190.914 399.723 191.14 399.731C191.356 399.745 191.64 399.719 191.991 399.655C192.331 399.597 192.763 399.493 193.286 399.344C193.915 399.161 194.501 399.024 195.044 398.932C195.587 398.84 196.083 398.824 196.533 398.883C196.989 398.952 197.41 399.118 197.796 399.379C198.173 399.647 198.517 400.051 198.829 400.592L198.847 400.623C199.135 401.122 199.299 401.623 199.34 402.125C199.387 402.639 199.328 403.137 199.164 403.62C198.989 404.109 198.713 404.566 198.335 404.992C197.957 405.418 197.488 405.793 196.927 406.117C196.126 406.579 195.325 406.883 194.522 407.027C193.708 407.178 192.892 407.193 192.073 407.07L192.276 404.541C192.956 404.592 193.584 404.576 194.16 404.493C194.742 404.42 195.266 404.249 195.734 403.979C196.202 403.709 196.501 403.411 196.632 403.086C196.759 402.778 196.744 402.488 196.588 402.218L196.57 402.187C196.468 402.01 196.347 401.872 196.206 401.773C196.062 401.691 195.871 401.648 195.634 401.646C195.397 401.644 195.101 401.684 194.746 401.764C194.38 401.851 193.928 401.966 193.388 402.112C192.753 402.284 192.169 402.4 191.635 402.459C191.096 402.534 190.606 402.526 190.165 402.434C189.72 402.359 189.326 402.192 188.982 401.933C188.628 401.68 188.313 401.314 188.037 400.836L188.019 400.805ZM179.828 401.689C179.994 401.4 180.203 401.126 180.456 400.869C180.704 400.602 181.025 400.354 181.42 400.126C181.784 399.916 182.14 399.765 182.49 399.674C182.823 399.579 183.155 399.567 183.487 399.639C183.809 399.716 184.122 399.875 184.427 400.115C184.728 400.371 185.019 400.743 185.301 401.232L187.587 405.191L188.584 404.615L189.754 406.641L188.757 407.217L189.99 409.353L187.62 410.721L186.387 408.585L184.423 409.719L183.253 407.693L185.217 406.559L183.156 402.989C182.844 402.449 182.434 402.326 181.924 402.62C181.509 402.86 181.176 403.183 180.926 403.591L179.828 401.689ZM171.62 411.521C171.272 410.918 171.059 410.285 170.981 409.623C170.91 408.972 170.963 408.332 171.14 407.703C171.318 407.074 171.616 406.486 172.035 405.939C172.453 405.393 172.99 404.93 173.645 404.552C174.289 404.18 174.95 403.944 175.626 403.845C176.309 403.755 176.964 403.786 177.592 403.936C178.215 404.103 178.79 404.381 179.319 404.768C179.854 405.166 180.295 405.667 180.643 406.269L180.661 406.301C181.009 406.903 181.219 407.53 181.29 408.182C181.367 408.844 181.317 409.49 181.14 410.118C180.963 410.747 180.665 411.335 180.246 411.882C179.827 412.428 179.29 412.891 178.636 413.269C177.991 413.641 177.328 413.871 176.645 413.961C175.968 414.061 175.318 414.027 174.695 413.86C174.068 413.71 173.487 413.435 172.952 413.037C172.424 412.65 171.986 412.154 171.638 411.552L171.62 411.521ZM173.94 410.139L173.958 410.171C174.138 410.482 174.358 410.743 174.618 410.953C174.884 411.174 175.175 411.331 175.493 411.425C175.816 411.529 176.149 411.566 176.491 411.535C176.833 411.503 177.166 411.395 177.488 411.209C177.831 411.011 178.101 410.771 178.3 410.491C178.493 410.226 178.624 409.936 178.691 409.62C178.758 409.304 178.762 408.976 178.704 408.636C178.642 408.311 178.521 407.993 178.341 407.682L178.323 407.651C178.143 407.339 177.92 407.073 177.654 406.852C177.394 406.642 177.102 406.485 176.779 406.38C176.461 406.286 176.137 406.252 175.805 406.277C175.463 406.309 175.125 406.42 174.793 406.612C174.45 406.81 174.181 407.042 173.987 407.306C173.789 407.587 173.657 407.885 173.59 408.201C173.523 408.517 173.52 408.837 173.583 409.161C173.641 409.501 173.76 409.828 173.94 410.139ZM160.917 413.938C161.064 413.257 161.314 412.621 161.665 412.03C162.023 411.449 162.618 410.919 163.449 410.439C164.072 410.079 164.72 409.857 165.393 409.774C166.055 409.696 166.689 409.739 167.296 409.902C167.908 410.074 168.474 410.358 168.992 410.751C169.516 411.155 169.949 411.654 170.291 412.246L170.309 412.277C170.651 412.869 170.866 413.494 170.954 414.15C171.042 414.806 171.007 415.442 170.851 416.059C170.694 416.676 170.417 417.252 170.019 417.786C169.61 418.327 169.084 418.783 168.44 419.155C167.65 419.611 166.923 419.865 166.26 419.915C165.596 419.966 164.941 419.887 164.294 419.678L164.844 417.282C165.276 417.407 165.685 417.468 166.072 417.467C166.449 417.471 166.85 417.35 167.276 417.104C167.578 416.93 167.817 416.709 167.995 416.44C168.168 416.188 168.288 415.904 168.355 415.588C168.411 415.278 168.411 414.953 168.353 414.612C168.29 414.288 168.169 413.97 167.989 413.658L167.971 413.627C167.785 413.305 167.564 413.031 167.309 412.804C167.043 412.583 166.756 412.423 166.449 412.323C166.142 412.223 165.823 412.186 165.491 412.211C165.165 412.247 164.841 412.358 164.519 412.544C164.124 412.772 163.826 413.048 163.625 413.372C163.42 413.712 163.249 414.101 163.114 414.54L160.917 413.938ZM150.505 418.162L153.217 416.596L157.371 418.749L157.693 417.399L156.226 414.859L158.595 413.491L165.165 424.87L162.796 426.238L159.295 420.174L158.275 424.816L155.438 426.454L156.719 421.329L150.505 418.162ZM133.535 427.959L135.92 426.582L140.033 433.706L140.413 427.272L140.476 427.236L146.179 430.095L142.093 423.018L144.447 421.659L150.747 432.571L148.16 434.065L142.627 431.107L142.423 437.377L139.835 438.871L133.535 427.959ZM123.977 433.477L126.269 432.154L126.791 433.059C126.896 432.568 127.094 432.108 127.385 431.676C127.682 431.255 128.122 430.877 128.704 430.541C129.099 430.313 129.503 430.149 129.916 430.048C130.325 429.965 130.723 429.957 131.108 430.025C131.494 430.094 131.855 430.239 132.191 430.46C132.522 430.698 132.808 431.025 133.048 431.441L133.066 431.472C133.33 431.93 133.475 432.372 133.501 432.801C133.526 433.23 133.457 433.637 133.292 434.023C133.116 434.415 132.856 434.78 132.511 435.118C132.161 435.473 131.737 435.794 131.238 436.082C130.812 436.328 130.425 436.51 130.077 436.627C129.719 436.751 129.359 436.848 128.998 436.918L129.079 437.058C129.367 437.557 129.737 437.849 130.188 437.935C130.639 438.021 131.161 437.893 131.754 437.551C132.211 437.287 132.592 437.011 132.898 436.724C133.198 436.453 133.499 436.134 133.8 435.767L135.436 437.233C135.093 437.695 134.708 438.132 134.281 438.544C133.854 438.957 133.287 439.367 132.581 439.775C131.282 440.525 130.153 440.754 129.195 440.463C128.236 440.171 127.43 439.458 126.776 438.325L123.977 433.477ZM127.923 435.128L128.166 435.549C128.428 435.522 128.703 435.46 128.993 435.362C129.279 435.28 129.567 435.155 129.858 434.987C130.367 434.693 130.71 434.364 130.887 433.998C131.064 433.633 131.045 433.263 130.829 432.889L130.811 432.858C130.625 432.535 130.361 432.355 130.02 432.316C129.679 432.278 129.316 432.369 128.932 432.591C128.371 432.915 128.002 433.308 127.825 433.771C127.638 434.239 127.671 434.691 127.923 435.128ZM120.386 443.594L120.511 443.522C121.301 443.066 121.786 442.467 121.967 441.725C122.138 440.989 121.933 440.117 121.351 439.109L119.569 436.023L121.938 434.655L126.762 443.01L124.393 444.378L123.421 442.694C123.512 443.404 123.448 444.05 123.231 444.633C123.013 445.216 122.542 445.696 121.817 446.073L120.386 443.594ZM107.332 443.087L110.045 441.521L114.198 443.675L114.52 442.325L113.053 439.784L115.423 438.416L121.993 449.796L119.623 451.164L116.122 445.1L115.102 449.742L112.265 451.38L113.546 446.255L107.332 443.087ZM100.68 452.186C100.614 452.072 100.562 451.97 100.525 451.881C100.477 451.798 100.425 451.696 100.369 451.576L106.184 448.219C105.758 447.745 105.287 447.469 104.771 447.393C104.252 447.332 103.727 447.455 103.197 447.761C102.802 447.989 102.488 448.261 102.254 448.576C102.02 448.891 101.824 449.295 101.665 449.789L99.6161 449.371C99.729 448.655 99.985 447.994 100.384 447.39C100.789 446.796 101.371 446.279 102.13 445.841C102.753 445.481 103.395 445.249 104.056 445.145C104.706 445.047 105.339 445.076 105.956 445.233C106.563 445.395 107.125 445.673 107.643 446.067C108.168 446.471 108.616 446.995 108.988 447.639L109.006 447.671C109.348 448.263 109.573 448.881 109.682 449.525C109.78 450.175 109.761 450.803 109.625 451.408C109.489 452.012 109.238 452.573 108.871 453.09C108.494 453.613 107.999 454.051 107.386 454.405C106.689 454.807 106.015 455.03 105.362 455.075C104.708 455.119 104.092 455.025 103.514 454.79C102.931 454.573 102.402 454.234 101.929 453.773C101.45 453.328 101.04 452.81 100.698 452.218L100.68 452.186ZM103.5 451.743C103.879 452.231 104.312 452.549 104.799 452.697C105.293 452.856 105.789 452.791 106.288 452.503C106.787 452.215 107.099 451.82 107.225 451.318C107.34 450.822 107.288 450.276 107.07 449.682L103.5 451.743ZM92.1432 452.314C92.3086 452.025 92.518 451.751 92.7714 451.494C93.0187 451.227 93.3399 450.979 93.7348 450.751C94.0985 450.541 94.4551 450.39 94.8044 450.299C95.1374 450.204 95.47 450.192 95.8023 450.264C96.1241 450.341 96.4374 450.5 96.7421 450.74C97.0424 450.996 97.3336 451.368 97.6156 451.856L99.9016 455.816L100.899 455.24L102.069 457.266L101.072 457.842L102.305 459.978L99.9351 461.346L98.7021 459.21L96.738 460.344L95.568 458.318L97.5321 457.184L95.4711 453.614C95.1591 453.074 94.7485 452.951 94.2393 453.245C93.8236 453.485 93.4909 453.808 93.2412 454.216L92.1432 452.314Z" fill="#FEFEFF"/>
<defs>
<linearGradient id="paint0_linear_390_726" x1="425.642" y1="518.399" x2="-252" y2="-306.175" gradientUnits="userSpaceOnUse">
<stop stop-color="#AEE7FF"/>
<stop offset="1" stop-color="#574EA0" stop-opacity="0"/>
</linearGradient>
</defs>
</svg>
