<svg width="928" height="928" viewBox="0 0 928 928" fill="none" xmlns="http://www.w3.org/2000/svg">
<path d="M198.022 843.098C273.295 896.023 365.046 927.096 464.053 927.096C719.79 927.096 927.106 719.782 927.106 464.048C927.107 208.314 719.79 1.00016 464.053 1.00014C208.316 1.00012 0.999697 208.314 0.999674 464.048C0.999663 591.248 52.2884 706.469 135.316 790.158" stroke="#E012EE" stroke-width="1.41175"/>
<path d="M211 828.176L217.822 828.176L217.822 825.494L211.81 825.494L211.81 822.974L217.822 822.974L217.822 818.096L220.594 818.096L220.594 830.696L211 830.696L211 828.176ZM199.098 822.902C199.098 822.206 199.23 821.552 199.494 820.94C199.758 820.34 200.124 819.812 200.592 819.356C201.06 818.9 201.612 818.54 202.248 818.276C202.884 818.012 203.58 817.88 204.336 817.88C205.08 817.88 205.77 818.006 206.406 818.258C207.042 818.522 207.594 818.876 208.062 819.32C208.518 819.776 208.878 820.304 209.142 820.904C209.406 821.516 209.538 822.17 209.538 822.866L209.538 822.902C209.538 823.598 209.406 824.246 209.142 824.846C208.878 825.458 208.512 825.992 208.044 826.448C207.576 826.904 207.024 827.264 206.388 827.528C205.752 827.792 205.056 827.924 204.3 827.924C203.556 827.924 202.866 827.792 202.23 827.528C201.594 827.276 201.048 826.922 200.592 826.466C200.124 826.022 199.758 825.494 199.494 824.882C199.23 824.282 199.098 823.634 199.098 822.938L199.098 822.902ZM201.798 822.866L201.798 822.902C201.798 823.262 201.858 823.598 201.978 823.91C202.098 824.234 202.272 824.516 202.5 824.756C202.728 825.008 202.998 825.206 203.31 825.35C203.622 825.494 203.964 825.566 204.336 825.566C204.732 825.566 205.086 825.494 205.398 825.35C205.698 825.218 205.956 825.032 206.172 824.792C206.388 824.552 206.556 824.27 206.676 823.946C206.784 823.634 206.838 823.298 206.838 822.938L206.838 822.902C206.838 822.542 206.778 822.2 206.658 821.876C206.538 821.564 206.364 821.282 206.136 821.03C205.908 820.79 205.644 820.598 205.344 820.454C205.032 820.31 204.684 820.238 204.3 820.238C203.904 820.238 203.556 820.304 203.256 820.436C202.944 820.58 202.68 820.772 202.464 821.012C202.248 821.252 202.086 821.528 201.978 821.84C201.858 822.164 201.798 822.506 201.798 822.866ZM191.303 825.062L191.447 825.062C192.359 825.062 193.079 824.786 193.607 824.234C194.123 823.682 194.381 822.824 194.381 821.66L194.381 818.096L197.117 818.096L197.117 827.744L194.381 827.744L194.381 825.8C194.105 826.46 193.727 826.988 193.247 827.384C192.767 827.78 192.119 827.96 191.303 827.924L191.303 825.062ZM180.593 822.65C180.593 822.518 180.599 822.404 180.611 822.308C180.611 822.212 180.617 822.098 180.629 821.966L187.343 821.966C187.211 821.342 186.941 820.868 186.533 820.544C186.113 820.232 185.597 820.076 184.985 820.076C184.529 820.076 184.121 820.154 183.761 820.31C183.401 820.466 183.029 820.718 182.645 821.066L181.079 819.68C181.535 819.116 182.087 818.672 182.735 818.348C183.383 818.036 184.145 817.88 185.021 817.88C185.741 817.88 186.413 818 187.037 818.24C187.649 818.48 188.183 818.822 188.639 819.266C189.083 819.71 189.431 820.232 189.683 820.832C189.935 821.444 190.061 822.122 190.061 822.866L190.061 822.902C190.061 823.586 189.947 824.234 189.719 824.846C189.479 825.458 189.149 825.992 188.729 826.448C188.309 826.904 187.811 827.264 187.235 827.528C186.647 827.792 185.999 827.924 185.291 827.924C184.487 827.924 183.791 827.78 183.203 827.492C182.615 827.204 182.129 826.814 181.745 826.322C181.349 825.842 181.061 825.284 180.881 824.648C180.689 824.024 180.593 823.37 180.593 822.686L180.593 822.65ZM183.257 823.676C183.341 824.288 183.557 824.78 183.905 825.152C184.253 825.536 184.715 825.728 185.291 825.728C185.867 825.728 186.335 825.542 186.695 825.17C187.043 824.798 187.271 824.3 187.379 823.676L183.257 823.676ZM169.68 818.096L172.614 818.096L174.558 821.102L176.502 818.096L179.364 818.096L175.98 822.992L179.238 827.744L176.304 827.744L174.504 824.936L172.686 827.744L169.824 827.744L173.082 823.046L169.68 818.096ZM152.764 818.096L162.358 818.096L162.358 830.696L152.854 830.696L152.854 828.23L159.604 828.23L159.604 825.674L153.664 825.674L153.664 823.208L159.604 823.208L159.604 820.562L152.764 820.562L152.764 818.096ZM140.886 818.096L143.622 818.096L143.622 819.482C143.958 819.026 144.366 818.648 144.846 818.348C145.314 818.06 145.908 817.916 146.628 817.916C147.192 817.916 147.738 818.024 148.266 818.24C148.794 818.456 149.262 818.774 149.67 819.194C150.078 819.626 150.408 820.148 150.66 820.76C150.9 821.384 151.02 822.098 151.02 822.902L151.02 822.938C151.02 823.742 150.9 824.45 150.66 825.062C150.408 825.686 150.084 826.208 149.688 826.628C149.28 827.06 148.812 827.384 148.284 827.6C147.756 827.816 147.204 827.924 146.628 827.924C145.896 827.924 145.296 827.78 144.828 827.492C144.348 827.204 143.946 826.868 143.622 826.484L143.622 831.236L140.886 831.236L140.886 818.096ZM143.586 822.902L143.586 822.938C143.586 823.334 143.652 823.694 143.784 824.018C143.904 824.354 144.072 824.636 144.288 824.864C144.492 825.104 144.738 825.284 145.026 825.404C145.302 825.536 145.602 825.602 145.926 825.602C146.25 825.602 146.556 825.536 146.844 825.404C147.12 825.284 147.366 825.104 147.582 824.864C147.798 824.636 147.972 824.36 148.104 824.036C148.224 823.712 148.284 823.346 148.284 822.938L148.284 822.902C148.284 822.506 148.224 822.14 148.104 821.804C147.972 821.48 147.798 821.198 147.582 820.958C147.366 820.73 147.12 820.55 146.844 820.418C146.556 820.298 146.25 820.238 145.926 820.238C145.602 820.238 145.302 820.298 145.026 820.418C144.738 820.55 144.492 820.73 144.288 820.958C144.072 821.198 143.904 821.48 143.784 821.804C143.652 822.14 143.586 822.506 143.586 822.902ZM129.675 818.096L132.411 818.096L132.411 819.464C132.567 819.26 132.741 819.062 132.933 818.87C133.113 818.69 133.317 818.528 133.545 818.384C133.773 818.24 134.025 818.126 134.301 818.042C134.577 817.958 134.889 817.916 135.237 817.916C136.281 817.916 137.091 818.234 137.667 818.87C138.231 819.506 138.513 820.382 138.513 821.498L138.513 827.744L135.777 827.744L135.777 822.362C135.777 821.714 135.633 821.222 135.345 820.886C135.057 820.562 134.649 820.4 134.121 820.4C133.593 820.4 133.179 820.562 132.879 820.886C132.567 821.222 132.411 821.714 132.411 822.362L132.411 827.744L129.675 827.744L129.675 818.096ZM118.73 819.644C119.198 819.128 119.732 818.702 120.332 818.366C120.932 818.042 121.712 817.88 122.672 817.88C123.392 817.88 124.064 818.012 124.688 818.276C125.3 818.54 125.828 818.894 126.272 819.338C126.716 819.794 127.064 820.322 127.316 820.922C127.568 821.534 127.694 822.182 127.694 822.866L127.694 822.902C127.694 823.586 127.568 824.234 127.316 824.846C127.064 825.458 126.716 825.992 126.272 826.448C125.828 826.904 125.3 827.264 124.688 827.528C124.064 827.792 123.38 827.924 122.636 827.924C121.724 827.924 120.968 827.78 120.368 827.492C119.768 827.204 119.24 826.808 118.784 826.304L120.458 824.504C120.77 824.828 121.094 825.086 121.43 825.278C121.754 825.47 122.162 825.566 122.654 825.566C123.002 825.566 123.32 825.494 123.608 825.35C123.884 825.218 124.13 825.032 124.346 824.792C124.55 824.552 124.712 824.27 124.832 823.946C124.94 823.634 124.994 823.298 124.994 822.938L124.994 822.902C124.994 822.53 124.94 822.182 124.832 821.858C124.712 821.534 124.544 821.252 124.328 821.012C124.112 820.772 123.854 820.58 123.554 820.436C123.254 820.304 122.918 820.238 122.546 820.238C122.09 820.238 121.694 820.328 121.358 820.508C121.01 820.7 120.668 820.952 120.332 821.264L118.73 819.644ZM108.645 818.096L111.291 818.096L111.291 819.14C111.627 818.768 112.029 818.468 112.497 818.24C112.965 818.024 113.535 817.916 114.207 817.916C114.663 817.916 115.095 817.976 115.503 818.096C115.899 818.228 116.247 818.42 116.547 818.672C116.847 818.924 117.087 819.23 117.267 819.59C117.435 819.962 117.519 820.388 117.519 820.868L117.519 820.904C117.519 821.432 117.423 821.888 117.231 822.272C117.039 822.656 116.775 822.974 116.439 823.226C116.091 823.478 115.683 823.664 115.215 823.784C114.735 823.916 114.207 823.982 113.631 823.982C113.139 823.982 112.713 823.946 112.353 823.874C111.981 823.802 111.621 823.706 111.273 823.586L111.273 823.748C111.273 824.324 111.447 824.762 111.795 825.062C112.143 825.362 112.659 825.512 113.343 825.512C113.871 825.512 114.339 825.464 114.747 825.368C115.143 825.284 115.563 825.158 116.007 824.99L116.691 827.078C116.163 827.306 115.611 827.492 115.035 827.636C114.459 827.78 113.763 827.852 112.947 827.852C111.447 827.852 110.355 827.486 109.671 826.754C108.987 826.022 108.645 825.002 108.645 823.694L108.645 818.096ZM111.237 821.498L111.237 821.984C111.477 822.092 111.747 822.176 112.047 822.236C112.335 822.308 112.647 822.344 112.983 822.344C113.571 822.344 114.033 822.23 114.369 822.002C114.705 821.774 114.873 821.444 114.873 821.012L114.873 820.976C114.873 820.604 114.735 820.316 114.459 820.112C114.183 819.908 113.823 819.806 113.379 819.806C112.731 819.806 112.215 819.962 111.831 820.274C111.435 820.586 111.237 820.994 111.237 821.498ZM100.873 818.492C101.161 818.324 101.479 818.192 101.827 818.096C102.175 817.988 102.577 817.934 103.033 817.934C103.453 817.934 103.837 817.982 104.185 818.078C104.521 818.162 104.815 818.318 105.067 818.546C105.307 818.774 105.499 819.068 105.643 819.428C105.775 819.8 105.841 820.268 105.841 820.832L105.841 825.404L106.993 825.404L106.993 827.744L105.841 827.744L105.841 830.21L103.105 830.21L103.105 827.744L100.837 827.744L100.837 825.404L103.105 825.404L103.105 821.282C103.105 820.658 102.811 820.346 102.223 820.346C101.743 820.346 101.293 820.46 100.873 820.688L100.873 818.492ZM95.8859 828.806L98.7659 828.806L98.7659 831.236L95.8859 831.236L95.8859 828.806ZM95.9579 818.096L98.6939 818.096L98.6939 827.744L95.9579 827.744L95.9579 818.096ZM83.4163 822.902C83.4163 822.206 83.5483 821.552 83.8123 820.94C84.0763 820.34 84.4423 819.812 84.9103 819.356C85.3783 818.9 85.9303 818.54 86.5663 818.276C87.2023 818.012 87.8983 817.88 88.6543 817.88C89.3983 817.88 90.0883 818.006 90.7243 818.258C91.3603 818.522 91.9123 818.876 92.3803 819.32C92.8363 819.776 93.1963 820.304 93.4603 820.904C93.7243 821.516 93.8563 822.17 93.8563 822.866L93.8563 822.902C93.8563 823.598 93.7243 824.246 93.4603 824.846C93.1963 825.458 92.8303 825.992 92.3623 826.448C91.8943 826.904 91.3423 827.264 90.7063 827.528C90.0703 827.792 89.3743 827.924 88.6183 827.924C87.8743 827.924 87.1843 827.792 86.5483 827.528C85.9123 827.276 85.3663 826.922 84.9103 826.466C84.4423 826.022 84.0763 825.494 83.8123 824.882C83.5483 824.282 83.4163 823.634 83.4163 822.938L83.4163 822.902ZM86.1163 822.866L86.1163 822.902C86.1163 823.262 86.1763 823.598 86.2963 823.91C86.4163 824.234 86.5903 824.516 86.8183 824.756C87.0463 825.008 87.3163 825.206 87.6283 825.35C87.9403 825.494 88.2823 825.566 88.6543 825.566C89.0503 825.566 89.4043 825.494 89.7163 825.35C90.0163 825.218 90.2743 825.032 90.4903 824.792C90.7063 824.552 90.8743 824.27 90.9943 823.946C91.1023 823.634 91.1563 823.298 91.1563 822.938L91.1563 822.902C91.1563 822.542 91.0963 822.2 90.9763 821.876C90.8563 821.564 90.6823 821.282 90.4543 821.03C90.2263 820.79 89.9623 820.598 89.6623 820.454C89.3503 820.31 89.0023 820.238 88.6183 820.238C88.2223 820.238 87.8743 820.304 87.5743 820.436C87.2623 820.58 86.9983 820.772 86.7823 821.012C86.5663 821.252 86.4043 821.528 86.2963 821.84C86.1763 822.164 86.1163 822.506 86.1163 822.866ZM72.5972 818.096L75.3332 818.096L75.3332 823.478C75.3332 824.126 75.4772 824.612 75.7652 824.936C76.0532 825.272 76.4612 825.44 76.9892 825.44C77.5172 825.44 77.9372 825.272 78.2492 824.936C78.5492 824.612 78.6992 824.126 78.6992 823.478L78.6992 818.096L81.4352 818.096L81.4352 827.744L78.6992 827.744L78.6992 826.376C78.5432 826.58 78.3752 826.772 78.1952 826.952C78.0032 827.144 77.7932 827.312 77.5652 827.456C77.3372 827.6 77.0852 827.714 76.8092 827.798C76.5332 827.882 76.2212 827.924 75.8732 827.924C74.8292 827.924 74.0252 827.606 73.4612 826.97C72.8852 826.334 72.5972 825.458 72.5972 824.342L72.5972 818.096Z" fill="#FEFEFF"/>
</svg>
